<svg xmlns="http://www.w3.org/2000/svg" xmlns:xlink="http://www.w3.org/1999/xlink" viewBox="0 0 66.42 22.58"><defs><style>.cls-1{fill:url(#linear-gradient);}.cls-2{fill:#fff;}</style><linearGradient id="linear-gradient" x1="42.42" y1="11" x2="66.42" y2="11" gradientUnits="userSpaceOnUse"><stop offset="0" stop-color="#ff416c"/><stop offset="1" stop-color="#ff4b2b"/></linearGradient></defs><title>UXLove_logo</title><g id="Layer_2" data-name="Layer 2"><g id="Layer_1-2" data-name="Layer 1"><path class="cls-1" d="M54.42,3.44c-2-5.4-12-4.6-12,3.56,0,4.07,3.06,9.48,12,15,8.94-5.52,12-10.93,12-15C66.42-1.11,56.42-2,54.42,3.44Z"/><path class="cls-2" d="M16.54,20.06a9.74,9.74,0,0,1-6.92,2.52A9.71,9.71,0,0,1,2.7,20.06,8.55,8.55,0,0,1,0,13.5V0H6.21V13.4A3.55,3.55,0,0,0,7.15,16a3.31,3.31,0,0,0,2.47,1,3.31,3.31,0,0,0,2.46-1A3.55,3.55,0,0,0,13,13.4V0h6.21V13.5A8.55,8.55,0,0,1,16.54,20.06Z"/><path class="cls-2" d="M42.11,22H35.24l-3.62-6.76L28,22H21.08L27.7,10.57,21.45,0h6.83l3.31,6.24L34.92,0h6.75L35.49,10.68Z"/></g></g></svg>
